<?xml version="1.0" encoding="utf-8" standalone="no"?>
<!DOCTYPE svg PUBLIC "-//W3C//DTD SVG 1.1//EN"
  "http://www.w3.org/Graphics/SVG/1.1/DTD/svg11.dtd">
<!-- Created with matplotlib (http://matplotlib.sourceforge.net/) -->
<svg height="442pt" version="1.1" viewBox="0 0 586 442" width="586pt" xmlns="http://www.w3.org/2000/svg" xmlns:xlink="http://www.w3.org/1999/xlink">
 <defs>
  <style type="text/css">
*{stroke-linecap:square;stroke-linejoin:round;}
  </style>
 </defs>
 <g id="figure_1">
  <g id="patch_1">
   <path d="
M0 442.8
L586.8 442.8
L586.8 0
L0 0
z
" style="fill:#ffffff;"/>
  </g>
  <g id="axes_1">
   <g id="patch_2">
    <path d="
M73.35 398.52
L528.12 398.52
L528.12 44.28
L73.35 44.28
z
" style="fill:#ffffff;"/>
   </g>
   <g id="line2d_1">
    <path clip-path="url(#p9061672a36)" d="
M494.012 221.4
L493.956 221.4
L493.785 222.578
L493.096 224.98
L491.917 227.523
L490.202 230.306
L487.884 233.438
L484.873 237.038
L481.053 241.237
L476.28 246.184
L470.38 252.04
L463.144 258.977
L454.332 267.157
L443.681 276.712
L430.916 287.69
L423.659 293.686
L415.784 299.98
L407.269 306.513
L398.105 313.207
L388.291 319.956
L377.842 326.625
L366.79 333.053
L355.184 339.058
L343.096 344.439
L330.613 348.997
L317.842 352.542
L304.902 354.918
L291.92 356.013
L279.026 355.773
L266.345 354.21
L253.992 351.399
L242.068 347.471
L230.654 342.595
L219.813 336.967
L209.589 330.789
L200.007 324.254
L191.076 317.539
L182.792 310.796
L175.141 304.149
L168.1 297.694
L161.641 291.501
L155.733 285.62
L145.432 274.895
L136.922 265.593
L129.941 257.647
L124.257 250.917
L119.668 245.236
L116.002 240.434
L113.123 236.353
L110.919 232.846
L109.304 229.785
L108.215 227.052
L107.61 224.542
L107.465 222.155
L107.562 220.979
L107.773 219.798
L108.548 217.378
L109.819 214.799
L111.637 211.962
L114.072 208.755
L117.219 205.058
L121.198 200.736
L126.159 195.639
L132.282 189.601
L139.782 182.454
L148.903 174.035
L159.913 164.226
L166.212 158.785
L173.085 152.998
L180.56 146.89
L188.663 140.504
L197.41 133.902
L206.808 127.175
L216.852 120.438
L227.521 113.835
L238.778 107.536
L250.566 101.732
L262.806 96.6229
L275.405 92.4075
L288.251 89.2648
L301.222 87.3381
L314.187 86.719
L327.018 87.4379
L339.594 89.4596
L351.804 92.6882
L363.554 96.9771
L374.769 102.145
L385.393 107.994
L395.389 114.321
L404.738 120.94
L413.436 127.681
L421.491 134.402
L428.921 140.99
L435.749 147.358
L442.007 153.443
L447.726 159.205
L457.687 169.676
L465.904 178.727
L472.636 186.444
L478.11 192.973
L482.523 198.485
L486.038 203.146
L488.789 207.114
L490.882 210.531
L492.398 213.525
L493.398 216.211
L493.919 218.692
L494.008 219.887
L493.983 221.067
L493.845 222.243
L493.223 224.633
L492.115 227.15
L490.48 229.893
L488.252 232.969
L485.345 236.494
L481.648 240.6
L477.02 245.431
L471.292 251.149
L464.259 257.922
L455.686 265.916
L445.312 275.271
L432.863 286.049
L425.777 291.955
L418.08 298.169
L409.748 304.641
L400.768 311.299
L391.137 318.045
L380.866 324.752
L369.98 331.266
L358.526 337.411
L346.566 342.989
L334.185 347.8
L321.484 351.65
L308.579 354.371
L295.596 355.837
L282.664 355.977
L269.91 354.784
L257.453 352.316
L245.398 348.688
L233.833 344.062
L222.824 338.627
L212.422 332.584
L202.656 326.131
L193.54 319.451
L185.074 312.702
L177.246 306.017
L170.035 299.499
L163.414 293.226
L157.354 287.253
L146.776 276.328
L138.029 266.826
L130.847 258.695
L124.992 251.803
L120.258 245.983
L116.471 241.067
L113.487 236.893
L111.193 233.313
L109.499 230.196
L108.339 227.424
L107.668 224.888
L107.458 222.489
L107.523 221.312
L107.702 220.134
L108.409 217.728
L109.607 215.178
L111.343 212.383
L113.686 209.236
L116.725 205.617
L120.578 201.392
L125.389 196.414
L131.336 190.52
L138.626 183.54
L147.502 175.311
L158.227 165.703
L171.077 154.672
L178.379 148.652
L186.302 142.338
L194.865 135.79
L204.078 129.088
L213.941 122.34
L224.436 115.683
L235.531 109.28
L247.175 103.315
L259.297 97.9884
L271.805 93.5004
L284.593 90.0373
L297.541 87.7542
L310.521 86.7587
L323.403 87.0992
L336.063 88.759
L348.387 91.6584
L360.276 95.6641
L371.649 100.603
L382.445 106.279
L392.621 112.491
L402.155 119.045
L411.037 125.767
L419.273 132.507
L426.878 139.142
L433.874 145.58
L440.29 151.75
L446.158 157.607
L456.388 168.279
L464.836 177.528
L471.763 185.426
L477.403 192.114
L481.956 197.759
L485.589 202.531
L488.441 206.588
L490.622 210.076
L492.216 213.122
L493.286 215.845
L493.873 218.349
L494.002 220.733
L493.896 221.91
L493.676 223.091
L492.884 225.515
L491.593 228.102
L489.754 230.951
L487.294 234.174
L484.118 237.891
L480.105 242.24
L475.104 247.369
L468.933 253.445
L461.377 260.638
L452.191 269.106
L441.105 278.97
L434.763 284.437
L427.846 290.249
L420.325 296.379
L412.174 302.785
L403.379 309.399
L393.932 316.131
L383.84 322.864
L373.125 329.45
L361.826 335.718
L350.002 341.477
L337.731 346.526
L325.109 350.667
L312.249 353.723
L299.275 355.554
L286.316 356.073
L273.499 355.255
L260.947 353.139
L248.768 349.825
L237.056 345.464
L225.884 340.238
L215.306 334.347
L205.358 327.991
L196.057 321.357
L187.408 314.613
L179.401 307.898
L172.017 301.324
L165.232 294.975
L159.016 288.913
L148.157 277.79
L139.167 268.087
L131.778 259.768
L125.749 252.71
L120.868 246.749
L116.956 241.715
L113.866 237.445
L111.48 233.789
L109.706 230.614
L108.473 227.8
L107.734 225.236
L107.46 222.824
L107.493 221.645
L107.64 220.468
L108.28 218.076
L109.406 215.552
L111.062 212.798
L113.314 209.708
L116.248 206.163
L119.977 202.033
L124.643 197.171
L127.379 194.416
L127.379 194.416" style="fill:none;stroke:#0000ff;"/>
   </g>
   <g id="matplotlib.axis_1">
    <g id="xtick_1">
     <g id="line2d_2">
      <defs>
       <path d="
M0 0
L0 -4" id="m2c0896616c"/>
      </defs>
      <g>
       <use style="stroke:#000000;stroke-linecap:butt;stroke-width:0.5;" x="73.35" xlink:href="#m2c0896616c" y="398.52"/>
      </g>
     </g>
     <g id="line2d_3">
      <defs>
       <path d="
M0 0
L0 4" id="mf345c766f6"/>
      </defs>
      <g>
       <use style="stroke:#000000;stroke-linecap:butt;stroke-width:0.5;" x="73.35" xlink:href="#mf345c766f6" y="44.28"/>
      </g>
     </g>
     <g id="text_1">
      <!-- −200 -->
      <defs>
       <path d="
M10.5938 35.5
L73.1875 35.5
L73.1875 27.2031
L10.5938 27.2031
z
" id="BitstreamVeraSans-Roman-2212"/>
       <path d="
M19.1875 8.29688
L53.6094 8.29688
L53.6094 0
L7.32812 0
L7.32812 8.29688
Q12.9375 14.1094 22.625 23.8906
Q32.3281 33.6875 34.8125 36.5312
Q39.5469 41.8438 41.4219 45.5312
Q43.3125 49.2188 43.3125 52.7812
Q43.3125 58.5938 39.2344 62.25
Q35.1562 65.9219 28.6094 65.9219
Q23.9688 65.9219 18.8125 64.3125
Q13.6719 62.7031 7.8125 59.4219
L7.8125 69.3906
Q13.7656 71.7812 18.9375 73
Q24.125 74.2188 28.4219 74.2188
Q39.75 74.2188 46.4844 68.5469
Q53.2188 62.8906 53.2188 53.4219
Q53.2188 48.9219 51.5312 44.8906
Q49.8594 40.875 45.4062 35.4062
Q44.1875 33.9844 37.6406 27.2188
Q31.1094 20.4531 19.1875 8.29688" id="BitstreamVeraSans-Roman-32"/>
       <path d="
M31.7812 66.4062
Q24.1719 66.4062 20.3281 58.9062
Q16.5 51.4219 16.5 36.375
Q16.5 21.3906 20.3281 13.8906
Q24.1719 6.39062 31.7812 6.39062
Q39.4531 6.39062 43.2812 13.8906
Q47.125 21.3906 47.125 36.375
Q47.125 51.4219 43.2812 58.9062
Q39.4531 66.4062 31.7812 66.4062
M31.7812 74.2188
Q44.0469 74.2188 50.5156 64.5156
Q56.9844 54.8281 56.9844 36.375
Q56.9844 17.9688 50.5156 8.26562
Q44.0469 -1.42188 31.7812 -1.42188
Q19.5312 -1.42188 13.0625 8.26562
Q6.59375 17.9688 6.59375 36.375
Q6.59375 54.8281 13.0625 64.5156
Q19.5312 74.2188 31.7812 74.2188" id="BitstreamVeraSans-Roman-30"/>
      </defs>
      <g transform="translate(57.90375 411.42625)scale(0.12 -0.12)">
       <use xlink:href="#BitstreamVeraSans-Roman-2212"/>
       <use x="83.7890625" xlink:href="#BitstreamVeraSans-Roman-32"/>
       <use x="147.412109375" xlink:href="#BitstreamVeraSans-Roman-30"/>
       <use x="211.03515625" xlink:href="#BitstreamVeraSans-Roman-30"/>
      </g>
     </g>
    </g>
    <g id="xtick_2">
     <g id="line2d_4">
      <defs>
       <path d="
M0 0
L0 -4" id="m2c0896616c"/>
      </defs>
      <g>
       <use style="stroke:#000000;stroke-linecap:butt;stroke-width:0.5;" x="130.19625" xlink:href="#m2c0896616c" y="398.52"/>
      </g>
     </g>
     <g id="line2d_5">
      <defs>
       <path d="
M0 0
L0 4" id="mf345c766f6"/>
      </defs>
      <g>
       <use style="stroke:#000000;stroke-linecap:butt;stroke-width:0.5;" x="130.19625" xlink:href="#mf345c766f6" y="44.28"/>
      </g>
     </g>
     <g id="text_2">
      <!-- −150 -->
      <defs>
       <path d="
M12.4062 8.29688
L28.5156 8.29688
L28.5156 63.9219
L10.9844 60.4062
L10.9844 69.3906
L28.4219 72.9062
L38.2812 72.9062
L38.2812 8.29688
L54.3906 8.29688
L54.3906 0
L12.4062 0
z
" id="BitstreamVeraSans-Roman-31"/>
       <path d="
M10.7969 72.9062
L49.5156 72.9062
L49.5156 64.5938
L19.8281 64.5938
L19.8281 46.7344
Q21.9688 47.4688 24.1094 47.8281
Q26.2656 48.1875 28.4219 48.1875
Q40.625 48.1875 47.75 41.5
Q54.8906 34.8125 54.8906 23.3906
Q54.8906 11.625 47.5625 5.09375
Q40.2344 -1.42188 26.9062 -1.42188
Q22.3125 -1.42188 17.5469 -0.640625
Q12.7969 0.140625 7.71875 1.70312
L7.71875 11.625
Q12.1094 9.23438 16.7969 8.0625
Q21.4844 6.89062 26.7031 6.89062
Q35.1562 6.89062 40.0781 11.3281
Q45.0156 15.7656 45.0156 23.3906
Q45.0156 31 40.0781 35.4375
Q35.1562 39.8906 26.7031 39.8906
Q22.75 39.8906 18.8125 39.0156
Q14.8906 38.1406 10.7969 36.2812
z
" id="BitstreamVeraSans-Roman-35"/>
      </defs>
      <g transform="translate(114.75 411.42625)scale(0.12 -0.12)">
       <use xlink:href="#BitstreamVeraSans-Roman-2212"/>
       <use x="83.7890625" xlink:href="#BitstreamVeraSans-Roman-31"/>
       <use x="147.412109375" xlink:href="#BitstreamVeraSans-Roman-35"/>
       <use x="211.03515625" xlink:href="#BitstreamVeraSans-Roman-30"/>
      </g>
     </g>
    </g>
    <g id="xtick_3">
     <g id="line2d_6">
      <defs>
       <path d="
M0 0
L0 -4" id="m2c0896616c"/>
      </defs>
      <g>
       <use style="stroke:#000000;stroke-linecap:butt;stroke-width:0.5;" x="187.0425" xlink:href="#m2c0896616c" y="398.52"/>
      </g>
     </g>
     <g id="line2d_7">
      <defs>
       <path d="
M0 0
L0 4" id="mf345c766f6"/>
      </defs>
      <g>
       <use style="stroke:#000000;stroke-linecap:butt;stroke-width:0.5;" x="187.0425" xlink:href="#mf345c766f6" y="44.28"/>
      </g>
     </g>
     <g id="text_3">
      <!-- −100 -->
      <g transform="translate(171.59625 411.42625)scale(0.12 -0.12)">
       <use xlink:href="#BitstreamVeraSans-Roman-2212"/>
       <use x="83.7890625" xlink:href="#BitstreamVeraSans-Roman-31"/>
       <use x="147.412109375" xlink:href="#BitstreamVeraSans-Roman-30"/>
       <use x="211.03515625" xlink:href="#BitstreamVeraSans-Roman-30"/>
      </g>
     </g>
    </g>
    <g id="xtick_4">
     <g id="line2d_8">
      <defs>
       <path d="
M0 0
L0 -4" id="m2c0896616c"/>
      </defs>
      <g>
       <use style="stroke:#000000;stroke-linecap:butt;stroke-width:0.5;" x="243.88875" xlink:href="#m2c0896616c" y="398.52"/>
      </g>
     </g>
     <g id="line2d_9">
      <defs>
       <path d="
M0 0
L0 4" id="mf345c766f6"/>
      </defs>
      <g>
       <use style="stroke:#000000;stroke-linecap:butt;stroke-width:0.5;" x="243.88875" xlink:href="#mf345c766f6" y="44.28"/>
      </g>
     </g>
     <g id="text_4">
      <!-- −50 -->
      <g transform="translate(232.26 411.42625)scale(0.12 -0.12)">
       <use xlink:href="#BitstreamVeraSans-Roman-2212"/>
       <use x="83.7890625" xlink:href="#BitstreamVeraSans-Roman-35"/>
       <use x="147.412109375" xlink:href="#BitstreamVeraSans-Roman-30"/>
      </g>
     </g>
    </g>
    <g id="xtick_5">
     <g id="line2d_10">
      <defs>
       <path d="
M0 0
L0 -4" id="m2c0896616c"/>
      </defs>
      <g>
       <use style="stroke:#000000;stroke-linecap:butt;stroke-width:0.5;" x="300.735" xlink:href="#m2c0896616c" y="398.52"/>
      </g>
     </g>
     <g id="line2d_11">
      <defs>
       <path d="
M0 0
L0 4" id="mf345c766f6"/>
      </defs>
      <g>
       <use style="stroke:#000000;stroke-linecap:butt;stroke-width:0.5;" x="300.735" xlink:href="#mf345c766f6" y="44.28"/>
      </g>
     </g>
     <g id="text_5">
      <!-- 0 -->
      <g transform="translate(297.7115625 411.42625)scale(0.12 -0.12)">
       <use xlink:href="#BitstreamVeraSans-Roman-30"/>
      </g>
     </g>
    </g>
    <g id="xtick_6">
     <g id="line2d_12">
      <defs>
       <path d="
M0 0
L0 -4" id="m2c0896616c"/>
      </defs>
      <g>
       <use style="stroke:#000000;stroke-linecap:butt;stroke-width:0.5;" x="357.58125" xlink:href="#m2c0896616c" y="398.52"/>
      </g>
     </g>
     <g id="line2d_13">
      <defs>
       <path d="
M0 0
L0 4" id="mf345c766f6"/>
      </defs>
      <g>
       <use style="stroke:#000000;stroke-linecap:butt;stroke-width:0.5;" x="357.58125" xlink:href="#mf345c766f6" y="44.28"/>
      </g>
     </g>
     <g id="text_6">
      <!-- 50 -->
      <g transform="translate(350.8078125 411.42625)scale(0.12 -0.12)">
       <use xlink:href="#BitstreamVeraSans-Roman-35"/>
       <use x="63.623046875" xlink:href="#BitstreamVeraSans-Roman-30"/>
      </g>
     </g>
    </g>
    <g id="xtick_7">
     <g id="line2d_14">
      <defs>
       <path d="
M0 0
L0 -4" id="m2c0896616c"/>
      </defs>
      <g>
       <use style="stroke:#000000;stroke-linecap:butt;stroke-width:0.5;" x="414.4275" xlink:href="#m2c0896616c" y="398.52"/>
      </g>
     </g>
     <g id="line2d_15">
      <defs>
       <path d="
M0 0
L0 4" id="mf345c766f6"/>
      </defs>
      <g>
       <use style="stroke:#000000;stroke-linecap:butt;stroke-width:0.5;" x="414.4275" xlink:href="#mf345c766f6" y="44.28"/>
      </g>
     </g>
     <g id="text_7">
      <!-- 100 -->
      <g transform="translate(404.0325 411.42625)scale(0.12 -0.12)">
       <use xlink:href="#BitstreamVeraSans-Roman-31"/>
       <use x="63.623046875" xlink:href="#BitstreamVeraSans-Roman-30"/>
       <use x="127.24609375" xlink:href="#BitstreamVeraSans-Roman-30"/>
      </g>
     </g>
    </g>
    <g id="xtick_8">
     <g id="line2d_16">
      <defs>
       <path d="
M0 0
L0 -4" id="m2c0896616c"/>
      </defs>
      <g>
       <use style="stroke:#000000;stroke-linecap:butt;stroke-width:0.5;" x="471.27375" xlink:href="#m2c0896616c" y="398.52"/>
      </g>
     </g>
     <g id="line2d_17">
      <defs>
       <path d="
M0 0
L0 4" id="mf345c766f6"/>
      </defs>
      <g>
       <use style="stroke:#000000;stroke-linecap:butt;stroke-width:0.5;" x="471.27375" xlink:href="#mf345c766f6" y="44.28"/>
      </g>
     </g>
     <g id="text_8">
      <!-- 150 -->
      <g transform="translate(460.87875 411.42625)scale(0.12 -0.12)">
       <use xlink:href="#BitstreamVeraSans-Roman-31"/>
       <use x="63.623046875" xlink:href="#BitstreamVeraSans-Roman-35"/>
       <use x="127.24609375" xlink:href="#BitstreamVeraSans-Roman-30"/>
      </g>
     </g>
    </g>
    <g id="xtick_9">
     <g id="line2d_18">
      <defs>
       <path d="
M0 0
L0 -4" id="m2c0896616c"/>
      </defs>
      <g>
       <use style="stroke:#000000;stroke-linecap:butt;stroke-width:0.5;" x="528.12" xlink:href="#m2c0896616c" y="398.52"/>
      </g>
     </g>
     <g id="line2d_19">
      <defs>
       <path d="
M0 0
L0 4" id="mf345c766f6"/>
      </defs>
      <g>
       <use style="stroke:#000000;stroke-linecap:butt;stroke-width:0.5;" x="528.12" xlink:href="#mf345c766f6" y="44.28"/>
      </g>
     </g>
     <g id="text_9">
      <!-- 200 -->
      <g transform="translate(517.505625 411.42625)scale(0.12 -0.12)">
       <use xlink:href="#BitstreamVeraSans-Roman-32"/>
       <use x="63.623046875" xlink:href="#BitstreamVeraSans-Roman-30"/>
       <use x="127.24609375" xlink:href="#BitstreamVeraSans-Roman-30"/>
      </g>
     </g>
    </g>
    <g id="text_10">
     <!-- Angle [degrees] -->
     <defs>
      <path id="BitstreamVeraSans-Roman-20"/>
      <path d="
M8.59375 75.9844
L29.2969 75.9844
L29.2969 69
L17.5781 69
L17.5781 -6.20312
L29.2969 -6.20312
L29.2969 -13.1875
L8.59375 -13.1875
z
" id="BitstreamVeraSans-Roman-5b"/>
      <path d="
M30.4219 75.9844
L30.4219 -13.1875
L9.71875 -13.1875
L9.71875 -6.20312
L21.3906 -6.20312
L21.3906 69
L9.71875 69
L9.71875 75.9844
z
" id="BitstreamVeraSans-Roman-5d"/>
      <path d="
M54.8906 33.0156
L54.8906 0
L45.9062 0
L45.9062 32.7188
Q45.9062 40.4844 42.875 44.3281
Q39.8438 48.1875 33.7969 48.1875
Q26.5156 48.1875 22.3125 43.5469
Q18.1094 38.9219 18.1094 30.9062
L18.1094 0
L9.07812 0
L9.07812 54.6875
L18.1094 54.6875
L18.1094 46.1875
Q21.3438 51.125 25.7031 53.5625
Q30.0781 56 35.7969 56
Q45.2188 56 50.0469 50.1719
Q54.8906 44.3438 54.8906 33.0156" id="BitstreamVeraSans-Roman-6e"/>
      <path d="
M9.42188 75.9844
L18.4062 75.9844
L18.4062 0
L9.42188 0
z
" id="BitstreamVeraSans-Roman-6c"/>
      <path d="
M34.1875 63.1875
L20.7969 26.9062
L47.6094 26.9062
z

M28.6094 72.9062
L39.7969 72.9062
L67.5781 0
L57.3281 0
L50.6875 18.7031
L17.8281 18.7031
L11.1875 0
L0.78125 0
z
" id="BitstreamVeraSans-Roman-41"/>
      <path d="
M56.2031 29.5938
L56.2031 25.2031
L14.8906 25.2031
Q15.4844 15.9219 20.4844 11.0625
Q25.4844 6.20312 34.4219 6.20312
Q39.5938 6.20312 44.4531 7.46875
Q49.3125 8.73438 54.1094 11.2812
L54.1094 2.78125
Q49.2656 0.734375 44.1875 -0.34375
Q39.1094 -1.42188 33.8906 -1.42188
Q20.7969 -1.42188 13.1562 6.1875
Q5.51562 13.8125 5.51562 26.8125
Q5.51562 40.2344 12.7656 48.1094
Q20.0156 56 32.3281 56
Q43.3594 56 49.7812 48.8906
Q56.2031 41.7969 56.2031 29.5938
M47.2188 32.2344
Q47.125 39.5938 43.0938 43.9844
Q39.0625 48.3906 32.4219 48.3906
Q24.9062 48.3906 20.3906 44.1406
Q15.875 39.8906 15.1875 32.1719
z
" id="BitstreamVeraSans-Roman-65"/>
      <path d="
M45.4062 46.3906
L45.4062 75.9844
L54.3906 75.9844
L54.3906 0
L45.4062 0
L45.4062 8.20312
Q42.5781 3.32812 38.25 0.953125
Q33.9375 -1.42188 27.875 -1.42188
Q17.9688 -1.42188 11.7344 6.48438
Q5.51562 14.4062 5.51562 27.2969
Q5.51562 40.1875 11.7344 48.0938
Q17.9688 56 27.875 56
Q33.9375 56 38.25 53.625
Q42.5781 51.2656 45.4062 46.3906
M14.7969 27.2969
Q14.7969 17.3906 18.875 11.75
Q22.9531 6.10938 30.0781 6.10938
Q37.2031 6.10938 41.2969 11.75
Q45.4062 17.3906 45.4062 27.2969
Q45.4062 37.2031 41.2969 42.8438
Q37.2031 48.4844 30.0781 48.4844
Q22.9531 48.4844 18.875 42.8438
Q14.7969 37.2031 14.7969 27.2969" id="BitstreamVeraSans-Roman-64"/>
      <path d="
M45.4062 27.9844
Q45.4062 37.75 41.375 43.1094
Q37.3594 48.4844 30.0781 48.4844
Q22.8594 48.4844 18.8281 43.1094
Q14.7969 37.75 14.7969 27.9844
Q14.7969 18.2656 18.8281 12.8906
Q22.8594 7.51562 30.0781 7.51562
Q37.3594 7.51562 41.375 12.8906
Q45.4062 18.2656 45.4062 27.9844
M54.3906 6.78125
Q54.3906 -7.17188 48.1875 -13.9844
Q42 -20.7969 29.2031 -20.7969
Q24.4688 -20.7969 20.2656 -20.0938
Q16.0625 -19.3906 12.1094 -17.9219
L12.1094 -9.1875
Q16.0625 -11.3281 19.9219 -12.3438
Q23.7812 -13.375 27.7812 -13.375
Q36.625 -13.375 41.0156 -8.76562
Q45.4062 -4.15625 45.4062 5.17188
L45.4062 9.625
Q42.625 4.78125 38.2812 2.39062
Q33.9375 0 27.875 0
Q17.8281 0 11.6719 7.65625
Q5.51562 15.3281 5.51562 27.9844
Q5.51562 40.6719 11.6719 48.3281
Q17.8281 56 27.875 56
Q33.9375 56 38.2812 53.6094
Q42.625 51.2188 45.4062 46.3906
L45.4062 54.6875
L54.3906 54.6875
z
" id="BitstreamVeraSans-Roman-67"/>
      <path d="
M41.1094 46.2969
Q39.5938 47.1719 37.8125 47.5781
Q36.0312 48 33.8906 48
Q26.2656 48 22.1875 43.0469
Q18.1094 38.0938 18.1094 28.8125
L18.1094 0
L9.07812 0
L9.07812 54.6875
L18.1094 54.6875
L18.1094 46.1875
Q20.9531 51.1719 25.4844 53.5781
Q30.0312 56 36.5312 56
Q37.4531 56 38.5781 55.875
Q39.7031 55.7656 41.0625 55.5156
z
" id="BitstreamVeraSans-Roman-72"/>
      <path d="
M44.2812 53.0781
L44.2812 44.5781
Q40.4844 46.5312 36.375 47.5
Q32.2812 48.4844 27.875 48.4844
Q21.1875 48.4844 17.8438 46.4375
Q14.5 44.3906 14.5 40.2812
Q14.5 37.1562 16.8906 35.375
Q19.2812 33.5938 26.5156 31.9844
L29.5938 31.2969
Q39.1562 29.25 43.1875 25.5156
Q47.2188 21.7812 47.2188 15.0938
Q47.2188 7.46875 41.1875 3.01562
Q35.1562 -1.42188 24.6094 -1.42188
Q20.2188 -1.42188 15.4531 -0.5625
Q10.6875 0.296875 5.42188 2
L5.42188 11.2812
Q10.4062 8.6875 15.2344 7.39062
Q20.0625 6.10938 24.8125 6.10938
Q31.1562 6.10938 34.5625 8.28125
Q37.9844 10.4531 37.9844 14.4062
Q37.9844 18.0625 35.5156 20.0156
Q33.0625 21.9688 24.7031 23.7812
L21.5781 24.5156
Q13.2344 26.2656 9.51562 29.9062
Q5.8125 33.5469 5.8125 39.8906
Q5.8125 47.6094 11.2812 51.7969
Q16.75 56 26.8125 56
Q31.7812 56 36.1719 55.2656
Q40.5781 54.5469 44.2812 53.0781" id="BitstreamVeraSans-Roman-73"/>
     </defs>
     <g transform="translate(253.43625 425.715)scale(0.12 -0.12)">
      <use xlink:href="#BitstreamVeraSans-Roman-41"/>
      <use x="68.408203125" xlink:href="#BitstreamVeraSans-Roman-6e"/>
      <use x="131.787109375" xlink:href="#BitstreamVeraSans-Roman-67"/>
      <use x="195.263671875" xlink:href="#BitstreamVeraSans-Roman-6c"/>
      <use x="223.046875" xlink:href="#BitstreamVeraSans-Roman-65"/>
      <use x="284.5703125" xlink:href="#BitstreamVeraSans-Roman-20"/>
      <use x="316.357421875" xlink:href="#BitstreamVeraSans-Roman-5b"/>
      <use x="355.37109375" xlink:href="#BitstreamVeraSans-Roman-64"/>
      <use x="418.84765625" xlink:href="#BitstreamVeraSans-Roman-65"/>
      <use x="480.37109375" xlink:href="#BitstreamVeraSans-Roman-67"/>
      <use x="543.84765625" xlink:href="#BitstreamVeraSans-Roman-72"/>
      <use x="582.7109375" xlink:href="#BitstreamVeraSans-Roman-65"/>
      <use x="644.234375" xlink:href="#BitstreamVeraSans-Roman-65"/>
      <use x="705.7578125" xlink:href="#BitstreamVeraSans-Roman-73"/>
      <use x="757.857421875" xlink:href="#BitstreamVeraSans-Roman-5d"/>
     </g>
    </g>
   </g>
   <g id="matplotlib.axis_2">
    <g id="ytick_1">
     <g id="line2d_20">
      <defs>
       <path d="
M0 0
L4 0" id="m111023d4ed"/>
      </defs>
      <g>
       <use style="stroke:#000000;stroke-linecap:butt;stroke-width:0.5;" x="73.35" xlink:href="#m111023d4ed" y="398.52"/>
      </g>
     </g>
     <g id="line2d_21">
      <defs>
       <path d="
M0 0
L-4 0" id="md31544e97f"/>
      </defs>
      <g>
       <use style="stroke:#000000;stroke-linecap:butt;stroke-width:0.5;" x="528.12" xlink:href="#md31544e97f" y="398.52"/>
      </g>
     </g>
     <g id="text_11">
      <!-- −150 -->
      <g transform="translate(38.4575 402.8878125)scale(0.12 -0.12)">
       <use xlink:href="#BitstreamVeraSans-Roman-2212"/>
       <use x="83.7890625" xlink:href="#BitstreamVeraSans-Roman-31"/>
       <use x="147.412109375" xlink:href="#BitstreamVeraSans-Roman-35"/>
       <use x="211.03515625" xlink:href="#BitstreamVeraSans-Roman-30"/>
      </g>
     </g>
    </g>
    <g id="ytick_2">
     <g id="line2d_22">
      <defs>
       <path d="
M0 0
L4 0" id="m111023d4ed"/>
      </defs>
      <g>
       <use style="stroke:#000000;stroke-linecap:butt;stroke-width:0.5;" x="73.35" xlink:href="#m111023d4ed" y="339.48"/>
      </g>
     </g>
     <g id="line2d_23">
      <defs>
       <path d="
M0 0
L-4 0" id="md31544e97f"/>
      </defs>
      <g>
       <use style="stroke:#000000;stroke-linecap:butt;stroke-width:0.5;" x="528.12" xlink:href="#md31544e97f" y="339.48"/>
      </g>
     </g>
     <g id="text_12">
      <!-- −100 -->
      <g transform="translate(38.4575 343.8478125)scale(0.12 -0.12)">
       <use xlink:href="#BitstreamVeraSans-Roman-2212"/>
       <use x="83.7890625" xlink:href="#BitstreamVeraSans-Roman-31"/>
       <use x="147.412109375" xlink:href="#BitstreamVeraSans-Roman-30"/>
       <use x="211.03515625" xlink:href="#BitstreamVeraSans-Roman-30"/>
      </g>
     </g>
    </g>
    <g id="ytick_3">
     <g id="line2d_24">
      <defs>
       <path d="
M0 0
L4 0" id="m111023d4ed"/>
      </defs>
      <g>
       <use style="stroke:#000000;stroke-linecap:butt;stroke-width:0.5;" x="73.35" xlink:href="#m111023d4ed" y="280.44"/>
      </g>
     </g>
     <g id="line2d_25">
      <defs>
       <path d="
M0 0
L-4 0" id="md31544e97f"/>
      </defs>
      <g>
       <use style="stroke:#000000;stroke-linecap:butt;stroke-width:0.5;" x="528.12" xlink:href="#md31544e97f" y="280.44"/>
      </g>
     </g>
     <g id="text_13">
      <!-- −50 -->
      <g transform="translate(46.0925 284.8078125)scale(0.12 -0.12)">
       <use xlink:href="#BitstreamVeraSans-Roman-2212"/>
       <use x="83.7890625" xlink:href="#BitstreamVeraSans-Roman-35"/>
       <use x="147.412109375" xlink:href="#BitstreamVeraSans-Roman-30"/>
      </g>
     </g>
    </g>
    <g id="ytick_4">
     <g id="line2d_26">
      <defs>
       <path d="
M0 0
L4 0" id="m111023d4ed"/>
      </defs>
      <g>
       <use style="stroke:#000000;stroke-linecap:butt;stroke-width:0.5;" x="73.35" xlink:href="#m111023d4ed" y="221.4"/>
      </g>
     </g>
     <g id="line2d_27">
      <defs>
       <path d="
M0 0
L-4 0" id="md31544e97f"/>
      </defs>
      <g>
       <use style="stroke:#000000;stroke-linecap:butt;stroke-width:0.5;" x="528.12" xlink:href="#md31544e97f" y="221.4"/>
      </g>
     </g>
     <g id="text_14">
      <!-- 0 -->
      <g transform="translate(63.303125 225.7678125)scale(0.12 -0.12)">
       <use xlink:href="#BitstreamVeraSans-Roman-30"/>
      </g>
     </g>
    </g>
    <g id="ytick_5">
     <g id="line2d_28">
      <defs>
       <path d="
M0 0
L4 0" id="m111023d4ed"/>
      </defs>
      <g>
       <use style="stroke:#000000;stroke-linecap:butt;stroke-width:0.5;" x="73.35" xlink:href="#m111023d4ed" y="162.36"/>
      </g>
     </g>
     <g id="line2d_29">
      <defs>
       <path d="
M0 0
L-4 0" id="md31544e97f"/>
      </defs>
      <g>
       <use style="stroke:#000000;stroke-linecap:butt;stroke-width:0.5;" x="528.12" xlink:href="#md31544e97f" y="162.36"/>
      </g>
     </g>
     <g id="text_15">
      <!-- 50 -->
      <g transform="translate(55.803125 166.7278125)scale(0.12 -0.12)">
       <use xlink:href="#BitstreamVeraSans-Roman-35"/>
       <use x="63.623046875" xlink:href="#BitstreamVeraSans-Roman-30"/>
      </g>
     </g>
    </g>
    <g id="ytick_6">
     <g id="line2d_30">
      <defs>
       <path d="
M0 0
L4 0" id="m111023d4ed"/>
      </defs>
      <g>
       <use style="stroke:#000000;stroke-linecap:butt;stroke-width:0.5;" x="73.35" xlink:href="#m111023d4ed" y="103.32"/>
      </g>
     </g>
     <g id="line2d_31">
      <defs>
       <path d="
M0 0
L-4 0" id="md31544e97f"/>
      </defs>
      <g>
       <use style="stroke:#000000;stroke-linecap:butt;stroke-width:0.5;" x="528.12" xlink:href="#md31544e97f" y="103.32"/>
      </g>
     </g>
     <g id="text_16">
      <!-- 100 -->
      <g transform="translate(48.56 107.6878125)scale(0.12 -0.12)">
       <use xlink:href="#BitstreamVeraSans-Roman-31"/>
       <use x="63.623046875" xlink:href="#BitstreamVeraSans-Roman-30"/>
       <use x="127.24609375" xlink:href="#BitstreamVeraSans-Roman-30"/>
      </g>
     </g>
    </g>
    <g id="ytick_7">
     <g id="line2d_32">
      <defs>
       <path d="
M0 0
L4 0" id="m111023d4ed"/>
      </defs>
      <g>
       <use style="stroke:#000000;stroke-linecap:butt;stroke-width:0.5;" x="73.35" xlink:href="#m111023d4ed" y="44.28"/>
      </g>
     </g>
     <g id="line2d_33">
      <defs>
       <path d="
M0 0
L-4 0" id="md31544e97f"/>
      </defs>
      <g>
       <use style="stroke:#000000;stroke-linecap:butt;stroke-width:0.5;" x="528.12" xlink:href="#md31544e97f" y="44.28"/>
      </g>
     </g>
     <g id="text_17">
      <!-- 150 -->
      <g transform="translate(48.56 48.6478125)scale(0.12 -0.12)">
       <use xlink:href="#BitstreamVeraSans-Roman-31"/>
       <use x="63.623046875" xlink:href="#BitstreamVeraSans-Roman-35"/>
       <use x="127.24609375" xlink:href="#BitstreamVeraSans-Roman-30"/>
      </g>
     </g>
    </g>
    <g id="text_18">
     <!-- Angular velocity [deg/s] -->
     <defs>
      <path d="
M30.6094 48.3906
Q23.3906 48.3906 19.1875 42.75
Q14.9844 37.1094 14.9844 27.2969
Q14.9844 17.4844 19.1562 11.8438
Q23.3438 6.20312 30.6094 6.20312
Q37.7969 6.20312 41.9844 11.8594
Q46.1875 17.5312 46.1875 27.2969
Q46.1875 37.0156 41.9844 42.7031
Q37.7969 48.3906 30.6094 48.3906
M30.6094 56
Q42.3281 56 49.0156 48.375
Q55.7188 40.7656 55.7188 27.2969
Q55.7188 13.875 49.0156 6.21875
Q42.3281 -1.42188 30.6094 -1.42188
Q18.8438 -1.42188 12.1719 6.21875
Q5.51562 13.875 5.51562 27.2969
Q5.51562 40.7656 12.1719 48.375
Q18.8438 56 30.6094 56" id="BitstreamVeraSans-Roman-6f"/>
      <path d="
M25.3906 72.9062
L33.6875 72.9062
L8.29688 -9.28125
L0 -9.28125
z
" id="BitstreamVeraSans-Roman-2f"/>
      <path d="
M9.42188 54.6875
L18.4062 54.6875
L18.4062 0
L9.42188 0
z

M9.42188 75.9844
L18.4062 75.9844
L18.4062 64.5938
L9.42188 64.5938
z
" id="BitstreamVeraSans-Roman-69"/>
      <path d="
M32.1719 -5.07812
Q28.375 -14.8438 24.75 -17.8125
Q21.1406 -20.7969 15.0938 -20.7969
L7.90625 -20.7969
L7.90625 -13.2812
L13.1875 -13.2812
Q16.8906 -13.2812 18.9375 -11.5156
Q21 -9.76562 23.4844 -3.21875
L25.0938 0.875
L2.98438 54.6875
L12.5 54.6875
L29.5938 11.9219
L46.6875 54.6875
L56.2031 54.6875
z
" id="BitstreamVeraSans-Roman-79"/>
      <path d="
M2.98438 54.6875
L12.5 54.6875
L29.5938 8.79688
L46.6875 54.6875
L56.2031 54.6875
L35.6875 0
L23.4844 0
z
" id="BitstreamVeraSans-Roman-76"/>
      <path d="
M18.3125 70.2188
L18.3125 54.6875
L36.8125 54.6875
L36.8125 47.7031
L18.3125 47.7031
L18.3125 18.0156
Q18.3125 11.3281 20.1406 9.42188
Q21.9688 7.51562 27.5938 7.51562
L36.8125 7.51562
L36.8125 0
L27.5938 0
Q17.1875 0 13.2344 3.875
Q9.28125 7.76562 9.28125 18.0156
L9.28125 47.7031
L2.6875 47.7031
L2.6875 54.6875
L9.28125 54.6875
L9.28125 70.2188
z
" id="BitstreamVeraSans-Roman-74"/>
      <path d="
M8.5 21.5781
L8.5 54.6875
L17.4844 54.6875
L17.4844 21.9219
Q17.4844 14.1562 20.5 10.2656
Q23.5312 6.39062 29.5938 6.39062
Q36.8594 6.39062 41.0781 11.0312
Q45.3125 15.6719 45.3125 23.6875
L45.3125 54.6875
L54.2969 54.6875
L54.2969 0
L45.3125 0
L45.3125 8.40625
Q42.0469 3.42188 37.7188 1
Q33.4062 -1.42188 27.6875 -1.42188
Q18.2656 -1.42188 13.375 4.4375
Q8.5 10.2969 8.5 21.5781" id="BitstreamVeraSans-Roman-75"/>
      <path d="
M34.2812 27.4844
Q23.3906 27.4844 19.1875 25
Q14.9844 22.5156 14.9844 16.5
Q14.9844 11.7188 18.1406 8.90625
Q21.2969 6.10938 26.7031 6.10938
Q34.1875 6.10938 38.7031 11.4062
Q43.2188 16.7031 43.2188 25.4844
L43.2188 27.4844
z

M52.2031 31.2031
L52.2031 0
L43.2188 0
L43.2188 8.29688
Q40.1406 3.32812 35.5469 0.953125
Q30.9531 -1.42188 24.3125 -1.42188
Q15.9219 -1.42188 10.9531 3.29688
Q6 8.01562 6 15.9219
Q6 25.1406 12.1719 29.8281
Q18.3594 34.5156 30.6094 34.5156
L43.2188 34.5156
L43.2188 35.4062
Q43.2188 41.6094 39.1406 45
Q35.0625 48.3906 27.6875 48.3906
Q23 48.3906 18.5469 47.2656
Q14.1094 46.1406 10.0156 43.8906
L10.0156 52.2031
Q14.9375 54.1094 19.5781 55.0469
Q24.2188 56 28.6094 56
Q40.4844 56 46.3438 49.8438
Q52.2031 43.7031 52.2031 31.2031" id="BitstreamVeraSans-Roman-61"/>
      <path d="
M48.7812 52.5938
L48.7812 44.1875
Q44.9688 46.2969 41.1406 47.3438
Q37.3125 48.3906 33.4062 48.3906
Q24.6562 48.3906 19.8125 42.8438
Q14.9844 37.3125 14.9844 27.2969
Q14.9844 17.2812 19.8125 11.7344
Q24.6562 6.20312 33.4062 6.20312
Q37.3125 6.20312 41.1406 7.25
Q44.9688 8.29688 48.7812 10.4062
L48.7812 2.09375
Q45.0156 0.34375 40.9844 -0.53125
Q36.9688 -1.42188 32.4219 -1.42188
Q20.0625 -1.42188 12.7812 6.34375
Q5.51562 14.1094 5.51562 27.2969
Q5.51562 40.6719 12.8594 48.3281
Q20.2188 56 33.0156 56
Q37.1562 56 41.1094 55.1406
Q45.0625 54.2969 48.7812 52.5938" id="BitstreamVeraSans-Roman-63"/>
     </defs>
     <g transform="translate(33.4575 290.120625)rotate(-90.0)scale(0.12 -0.12)">
      <use xlink:href="#BitstreamVeraSans-Roman-41"/>
      <use x="68.408203125" xlink:href="#BitstreamVeraSans-Roman-6e"/>
      <use x="131.787109375" xlink:href="#BitstreamVeraSans-Roman-67"/>
      <use x="195.263671875" xlink:href="#BitstreamVeraSans-Roman-75"/>
      <use x="258.642578125" xlink:href="#BitstreamVeraSans-Roman-6c"/>
      <use x="286.42578125" xlink:href="#BitstreamVeraSans-Roman-61"/>
      <use x="347.705078125" xlink:href="#BitstreamVeraSans-Roman-72"/>
      <use x="388.818359375" xlink:href="#BitstreamVeraSans-Roman-20"/>
      <use x="420.60546875" xlink:href="#BitstreamVeraSans-Roman-76"/>
      <use x="479.78515625" xlink:href="#BitstreamVeraSans-Roman-65"/>
      <use x="541.30859375" xlink:href="#BitstreamVeraSans-Roman-6c"/>
      <use x="569.091796875" xlink:href="#BitstreamVeraSans-Roman-6f"/>
      <use x="630.2734375" xlink:href="#BitstreamVeraSans-Roman-63"/>
      <use x="685.25390625" xlink:href="#BitstreamVeraSans-Roman-69"/>
      <use x="713.037109375" xlink:href="#BitstreamVeraSans-Roman-74"/>
      <use x="752.24609375" xlink:href="#BitstreamVeraSans-Roman-79"/>
      <use x="811.42578125" xlink:href="#BitstreamVeraSans-Roman-20"/>
      <use x="843.212890625" xlink:href="#BitstreamVeraSans-Roman-5b"/>
      <use x="882.2265625" xlink:href="#BitstreamVeraSans-Roman-64"/>
      <use x="945.703125" xlink:href="#BitstreamVeraSans-Roman-65"/>
      <use x="1007.2265625" xlink:href="#BitstreamVeraSans-Roman-67"/>
      <use x="1070.703125" xlink:href="#BitstreamVeraSans-Roman-2f"/>
      <use x="1104.39453125" xlink:href="#BitstreamVeraSans-Roman-73"/>
      <use x="1156.49414062" xlink:href="#BitstreamVeraSans-Roman-5d"/>
     </g>
    </g>
   </g>
   <g id="patch_3">
    <path d="
M73.35 44.28
L528.12 44.28" style="fill:none;stroke:#000000;"/>
   </g>
   <g id="patch_4">
    <path d="
M528.12 398.52
L528.12 44.28" style="fill:none;stroke:#000000;"/>
   </g>
   <g id="patch_5">
    <path d="
M73.35 398.52
L528.12 398.52" style="fill:none;stroke:#000000;"/>
   </g>
   <g id="patch_6">
    <path d="
M73.35 398.52
L73.35 44.28" style="fill:none;stroke:#000000;"/>
   </g>
  </g>
 </g>
 <defs>
  <clipPath id="p9061672a36">
   <rect height="354.24" width="454.77" x="73.35" y="44.28"/>
  </clipPath>
 </defs>
</svg>
